<svg xmlns="http://www.w3.org/2000/svg" width="208" height="40" fill="none"><path fill="#0E1C35" d="M26.931 33.816a15.472 15.472 0 0 1-17.859-2.89A15.45 15.45 0 0 1 6.18 13.078a4.126 4.126 0 0 0-5.73 2.7l-.015.047c-.023.112-.049.233-.07.345a20.028 20.028 0 0 0 2.373 13.917 20.048 20.048 0 0 0 10.965 8.9 20.03 20.03 0 0 0 15.272-1.113l-2.044-4.058Zm1.01-32.18a20.003 20.003 0 0 0-16.912.498l2.042 4.058a15.472 15.472 0 0 1 17.853 2.895 15.45 15.45 0 0 1 2.893 17.843 4.123 4.123 0 0 0 5.712-2.567v-.017c.04-.172.077-.34.112-.508a.051.051 0 0 0 0-.038 20.044 20.044 0 0 0-1.96-13.133 20.063 20.063 0 0 0-9.74-9.032ZM64.018 26.34a10.382 10.382 0 0 1-2.81.379c-1.846 0-3.156-.503-3.933-1.509-.776-1.006-1.164-2.374-1.164-4.103 0-1.793.41-3.183 1.232-4.17.82-.983 2.019-1.473 3.586-1.473a8.66 8.66 0 0 1 1.901.202 9.015 9.015 0 0 1 1.583.501l.865-3.288a12.187 12.187 0 0 0-4.66-.899 8.854 8.854 0 0 0-3.588.7 7.848 7.848 0 0 0-2.715 1.923 8.549 8.549 0 0 0-1.713 2.91A10.608 10.608 0 0 0 52 21.115c-.011 1.233.168 2.46.531 3.64a7.867 7.867 0 0 0 1.614 2.887 7.348 7.348 0 0 0 2.733 1.895c1.235.481 2.554.714 3.88.684.934 0 1.865-.09 2.782-.268a8.314 8.314 0 0 0 1.99-.606l-1.513-3.008ZM79.42 12.405c-.508 2.08-1.07 4.233-1.688 6.462a89.278 89.278 0 0 1-1.985 6.296 64.142 64.142 0 0 1-1.266-3.092 95.618 95.618 0 0 1-2.255-6.644 57.341 57.341 0 0 1-.821-3.022h-4.306a87.434 87.434 0 0 0 3.114 9.167 94.761 94.761 0 0 0 3.665 7.973c-.446 1.042-.965 1.815-1.553 2.316-.589.5-1.418.654-2.46.747-.091 0-.184.013-.277.013h-2.017l1.688 3.342c.245.023.492.036.737.036a8.802 8.802 0 0 0 2.466-.316 5.59 5.59 0 0 0 1.935-1.014 7.487 7.487 0 0 0 1.565-1.762c.525-.814.983-1.668 1.37-2.555 2.37-5.361 4.452-11.341 6.247-17.941l-4.159-.006ZM101.812 17.404a8.474 8.474 0 0 0-1.477-2.877 6.456 6.456 0 0 0-2.413-1.842 7.962 7.962 0 0 0-3.281-.646 8.05 8.05 0 0 0-2.245.295 9.824 9.824 0 0 0-1.715.667V4a4.29 4.29 0 0 0-2.862 1.334 4.27 4.27 0 0 0-1.168 2.929v20.982c.99.287 1.996.51 3.015.667 1.26.204 2.535.304 3.812.299 1.261.02 2.514-.195 3.697-.632a7.635 7.635 0 0 0 2.783-1.829 8.122 8.122 0 0 0 1.762-2.873c.426-1.21.635-2.487.616-3.77a12.478 12.478 0 0 0-.524-3.703Zm-4.876 7.806c-.844 1.006-2.009 1.509-3.496 1.509-.55.006-1.102-.02-1.65-.08a10.581 10.581 0 0 1-1.116-.183v-9.999a6.128 6.128 0 0 1 3.298-.964c1.466 0 2.536.498 3.211 1.495.675.996 1.014 2.347 1.017 4.052 0 1.772-.421 3.162-1.264 4.17ZM119.229 14.192c-1.346-1.482-3.217-2.223-5.614-2.225a8.055 8.055 0 0 0-2.994.583 7.541 7.541 0 0 0-2.599 1.724 8.483 8.483 0 0 0-1.815 2.874 10.889 10.889 0 0 0-.683 4.022 11.56 11.56 0 0 0 .536 3.604 7.712 7.712 0 0 0 1.628 2.856 7.393 7.393 0 0 0 2.8 1.895c1.276.482 2.633.714 3.996.684.589-.001 1.177-.034 1.762-.1a21.17 21.17 0 0 0 1.618-.252c.449-.086.893-.197 1.329-.332.313-.09.618-.207.912-.348l-1.492-2.96c-.285.08-.601.16-.949.237-.883.183-1.783.27-2.684.263-1.664 0-2.934-.38-3.81-1.141-.878-.768-1.372-1.846-1.477-3.242h11.488c.025-.223.04-.471.053-.745.012-.274.014-.528.014-.751-.004-2.943-.677-5.158-2.019-6.646Zm-9.511 5.189a7.162 7.162 0 0 1 .371-1.499 4.14 4.14 0 0 1 .749-1.294c.329-.381.73-.692 1.182-.914a3.63 3.63 0 0 1 1.633-.347 3.475 3.475 0 0 1 1.546.316c.426.205.801.499 1.102.863.308.384.539.824.679 1.296.158.512.236 1.044.232 1.579h-7.494ZM205.972 14.192c-1.344-1.482-3.215-2.223-5.612-2.225a8.062 8.062 0 0 0-2.996.583 7.563 7.563 0 0 0-2.599 1.724 8.505 8.505 0 0 0-1.813 2.874 10.868 10.868 0 0 0-.685 4.022c-.015 1.223.164 2.44.529 3.608a7.714 7.714 0 0 0 1.629 2.857 7.363 7.363 0 0 0 2.798 1.894 10.64 10.64 0 0 0 4.013.682 16.22 16.22 0 0 0 1.763-.099c.576-.07 1.117-.154 1.617-.253.449-.086.892-.197 1.329-.332.314-.09.619-.207.913-.348l-1.493-2.959a12.613 12.613 0 0 1-3.631.499c-1.667 0-2.935-.38-3.813-1.141-.878-.762-1.369-1.846-1.477-3.242h11.488c.024-.223.041-.471.051-.745 0-.28.017-.528.017-.751-.009-2.945-.684-5.16-2.028-6.648Zm-9.509 5.189c.066-.512.19-1.015.369-1.499.168-.474.422-.913.749-1.294a3.704 3.704 0 0 1 1.18-.922 3.638 3.638 0 0 1 1.631-.34 3.465 3.465 0 0 1 1.544.316c.426.205.801.5 1.101.864.31.384.541.824.682 1.296.158.512.236 1.044.232 1.579h-7.488ZM134.784 16.354a13.298 13.298 0 0 0-1.382-.358 10.329 10.329 0 0 0-2.047-.181 8.13 8.13 0 0 0-1.416.132 8.687 8.687 0 0 0-1.055.232v13.92h-4.03V13.562a22.527 22.527 0 0 1 2.914-.812 18.194 18.194 0 0 1 3.88-.383c.266 0 .576.017.933.05.356.034.709.078 1.065.133.357.055.699.122 1.032.2.333.078.599.15.8.21l-.694 3.394ZM157.37 8.044V13a10.242 10.242 0 0 0-1.665-.667 7.703 7.703 0 0 0-2.23-.295 7.952 7.952 0 0 0-3.3.646 6.814 6.814 0 0 0-2.43 1.842 8.21 8.21 0 0 0-1.513 2.877 12.585 12.585 0 0 0-.517 3.735c-.019 1.283.19 2.56.616 3.772a7.9 7.9 0 0 0 1.766 2.856 7.737 7.737 0 0 0 2.779 1.812c1.182.437 2.436.651 3.696.632a23.322 23.322 0 0 0 3.811-.299 23.659 23.659 0 0 0 3.017-.667V4a4.288 4.288 0 0 0-2.79 1.253 4.267 4.267 0 0 0-1.24 2.79Zm0 18.412a10.6 10.6 0 0 1-1.116.183c-.547.06-1.096.086-1.646.08-1.489 0-2.656-.503-3.5-1.51-.844-1.006-1.266-2.396-1.266-4.17 0-1.706.34-3.056 1.019-4.051.679-.995 1.75-1.493 3.211-1.495a5.543 5.543 0 0 1 1.882.316 6.17 6.17 0 0 1 1.416.68v9.967ZM171.028 7.32a2.289 2.289 0 0 1-.734 1.793 2.485 2.485 0 0 1-1.731.665 2.537 2.537 0 0 1-1.766-.665 2.316 2.316 0 0 1-.732-1.793 2.345 2.345 0 0 1 .732-1.828 2.537 2.537 0 0 1 1.766-.665 2.498 2.498 0 0 1 1.731.665 2.356 2.356 0 0 1 .734 1.827Zm-.435 22.448h-4.028V12.403h4.028v17.365ZM180.606 29.77c-1.114-2.274-2.255-4.89-3.422-7.847a99.056 99.056 0 0 1-3.197-9.518h4.296c.244.975.526 2.021.844 3.138a79.52 79.52 0 0 0 1.036 3.355c.37 1.123.749 2.209 1.137 3.257s.75 1.995 1.086 2.84c.335-.843.692-1.79 1.07-2.84a124.15 124.15 0 0 0 1.12-3.257c.368-1.122.719-2.24 1.055-3.355.337-1.114.629-2.16.878-3.138h4.163a99.655 99.655 0 0 1-3.192 9.518c-1.171 2.956-2.313 5.574-3.429 7.856l-3.445-.008Z"/></svg>